<?xml version="1.0" encoding="UTF-8"?>
<svg id="Layer_2" data-name="Layer 2" xmlns="http://www.w3.org/2000/svg" viewBox="0 0 430.72 36.52">
  <defs>
    <style>
      .cls-1 {
        fill: #fef9ff;
      }

      .cls-2 {
        fill: #d4c1ec;
      }
    </style>
  </defs>
  <g id="Layer_1-2" data-name="Layer 1">
    <g>
      <g>
        <path class="cls-2" d="m0,4.28V.87h19.05v3.4h-7.75v31.37h-3.55V4.28H0Z"/>
        <path class="cls-2" d="m23.57.87h3.47v34.77h-3.47V.87Z"/>
        <path class="cls-2" d="m33.42,35.65L38.4.87h.56l14.14,28.53L67.1.87h.56l5,34.77h-3.41l-3.44-24.87-12.29,24.87h-.89l-12.44-25.06-3.42,25.06h-3.36Z"/>
        <path class="cls-2" d="m79.52.87h19.93v3.4h-16.45v10.9h16.31v3.4h-16.31v13.66h16.31v3.4h-19.78V.87Z"/>
        <path class="cls-2" d="m151.23,7.33l-2.74,2.1c-1.51-1.97-3.33-3.46-5.45-4.48-2.12-1.02-4.45-1.52-6.98-1.52-2.77,0-5.34.67-7.71,2-2.36,1.33-4.2,3.12-5.5,5.37-1.3,2.25-1.95,4.77-1.95,7.58,0,4.24,1.45,7.78,4.36,10.61s6.57,4.25,11,4.25c4.87,0,8.94-1.91,12.22-5.72l2.74,2.08c-1.73,2.21-3.9,3.91-6.49,5.12-2.59,1.21-5.49,1.81-8.69,1.81-6.08,0-10.88-2.02-14.4-6.07-2.95-3.42-4.42-7.55-4.42-12.39,0-5.09,1.78-9.37,5.35-12.85s8.04-5.21,13.41-5.21c3.25,0,6.18.64,8.79,1.93,2.62,1.28,4.76,3.08,6.43,5.4Z"/>
        <path class="cls-2" d="m172.41.87l16.22,34.77h-3.75l-5.47-11.44h-14.98l-5.42,11.44h-3.88L171.56.87h.85Zm-.44,7.39l-5.96,12.59h11.89l-5.93-12.59Z"/>
        <path class="cls-2" d="m194.02.87h3.47v31.41h13.38v3.36h-16.85V.87Z"/>
        <path class="cls-2" d="m248.76,7.33l-2.74,2.1c-1.51-1.97-3.33-3.46-5.45-4.48-2.12-1.02-4.45-1.52-6.98-1.52-2.77,0-5.34.67-7.71,2-2.36,1.33-4.2,3.12-5.5,5.37-1.3,2.25-1.95,4.77-1.95,7.58,0,4.24,1.45,7.78,4.36,10.61s6.57,4.25,11,4.25c4.87,0,8.94-1.91,12.22-5.72l2.74,2.08c-1.73,2.21-3.9,3.91-6.49,5.12-2.59,1.21-5.49,1.81-8.69,1.81-6.08,0-10.88-2.02-14.4-6.07-2.95-3.42-4.42-7.55-4.42-12.39,0-5.09,1.78-9.37,5.35-12.85,3.57-3.47,8.04-5.21,13.41-5.21,3.25,0,6.18.64,8.79,1.93,2.62,1.28,4.76,3.08,6.43,5.4Z"/>
        <path class="cls-2" d="m255.85.87h3.47v20.99c0,2.49.05,4.04.14,4.66.17,1.37.57,2.52,1.21,3.44.63.92,1.6,1.69,2.91,2.32,1.31.62,2.62.93,3.95.93,1.15,0,2.25-.24,3.31-.73,1.06-.49,1.94-1.17,2.65-2.03.71-.87,1.23-1.91,1.56-3.14.24-.88.35-2.69.35-5.44V.87h3.47v20.99c0,3.1-.3,5.61-.91,7.53-.61,1.91-1.82,3.58-3.64,5-1.82,1.42-4.02,2.13-6.61,2.13-2.81,0-5.21-.67-7.21-2.01-2-1.34-3.34-3.11-4.02-5.32-.43-1.36-.64-3.8-.64-7.33V.87Z"/>
        <path class="cls-2" d="m287.43.87h3.47v31.41h13.38v3.36h-16.85V.87Z"/>
        <path class="cls-2" d="m324,.87l16.22,34.77h-3.75l-5.47-11.44h-14.98l-5.42,11.44h-3.88L323.15.87h.85Zm-.44,7.39l-5.96,12.59h11.89l-5.93-12.59Z"/>
        <path class="cls-2" d="m342.15,4.28V.87h19.05v3.4h-7.75v31.37h-3.55V4.28h-7.75Z"/>
        <path class="cls-2" d="m408.48.87h6.93c3.86,0,6.48.16,7.85.47,2.06.47,3.74,1.49,5.03,3.04,1.29,1.55,1.94,3.47,1.94,5.74,0,1.89-.45,3.56-1.34,4.99-.89,1.44-2.16,2.52-3.82,3.25-1.65.73-3.94,1.11-6.86,1.12l12.5,16.14h-4.3l-12.5-16.14h-1.96v16.14h-3.47V.87Zm3.47,3.4v11.82l5.99.05c2.32,0,4.04-.22,5.15-.66,1.11-.44,1.98-1.15,2.6-2.12.62-.97.94-2.05.94-3.25s-.32-2.23-.95-3.18c-.63-.95-1.46-1.63-2.49-2.04-1.03-.41-2.73-.61-5.11-.61h-6.13Z"/>
      </g>
      <path class="cls-1" d="m388.43,25.61c.29.29.64.44,1.04.44s.74-.16,1.04-.49c.32-.32.49-.69.51-1.11.01-.41-.14-.77-.46-1.06l-5.88-5.93v-7.34c0-.41-.14-.75-.42-1.02s-.63-.4-1.04-.4-.76.13-1.04.4c-.28.27-.42.62-.42,1.06v7.92c0,.18.04.35.11.53.07.18.18.34.33.49l6.24,6.5Zm-5.35,10.44c-2.45,0-4.77-.47-6.97-1.42s-4.11-2.23-5.73-3.85c-1.62-1.62-2.91-3.53-3.85-5.73-.94-2.2-1.42-4.52-1.42-6.97s.47-4.77,1.42-6.97,2.23-4.11,3.85-5.73c1.62-1.62,3.53-2.91,5.73-3.85s4.52-1.42,6.97-1.42,4.77.47,6.97,1.42c2.2.94,4.11,2.23,5.73,3.85,1.62,1.62,2.91,3.53,3.85,5.73s1.42,4.52,1.42,6.97-.47,4.77-1.42,6.97c-.94,2.2-2.23,4.11-3.85,5.73-1.62,1.62-3.52,2.91-5.71,3.85s-4.51,1.42-6.99,1.42Zm0-3.01c4.1,0,7.62-1.46,10.55-4.38,2.93-2.92,4.4-6.44,4.4-10.57s-1.47-7.62-4.4-10.55c-2.93-2.93-6.45-4.4-10.55-4.4s-7.62,1.47-10.55,4.4-4.4,6.45-4.4,10.55,1.47,7.65,4.4,10.57c2.93,2.92,6.45,4.38,10.55,4.38Z"/>
    </g>
  </g>
</svg>